<svg xmlns="http://www.w3.org/2000/svg" viewBox="0 0 573.84 158.08"><defs><style>.cls-1{fill:#231f20;}.cls-2{fill:#010101;}</style></defs><g id="Layer_2" data-name="Layer 2"><g id="Layer_1-2" data-name="Layer 1"><path class="cls-1" d="M51.66,109.92q-6.3,13-22.82,13-10.92,0-15.4-5.46A15.8,15.8,0,0,1,10,110.55,48.83,48.83,0,0,1,9,99.28v-71q0-5.74-2-7.91T0,18.17V15.23q14.57.55,18.48.56,4.75,0,18.2-.56v2.94q-4.2,0-5.88,2.17t-1.68,7.91v76.91q0,5.75,1.89,8.68t6.79,2.94a12.62,12.62,0,0,0,9.87-4.55,16.87,16.87,0,0,0,4-11.55V61.62c0-3.83-.56-6.46-1.68-7.91s-3.08-2.17-5.88-2.17V48.6q13.44.55,17.36.56,4.75,0,19.32-.56v2.94q-4.91,0-6.93,2.17c-1.35,1.45-2,4.08-2,7.91v79.66q0,6.43,2,9.38t6.93,2.94v2.94q-4.48-.42-8.68-.42a90,90,0,0,0-20.44,2Z"/><path class="cls-1" d="M151.24,53.64a15.25,15.25,0,0,1,3.36,6.86,52.23,52.23,0,0,1,1,11.34V109.5q0,5.75,2,7.91t6.93,2.17v2.94q-14-.55-18.48-.56-4.2,0-18.2.56v-2.94q4.2,0,5.88-2.17t1.68-7.91V66c0-3.82-.63-6.72-1.89-8.68s-3.52-2.94-6.79-2.94a12.54,12.54,0,0,0-9.8,4.69,17,17,0,0,0-4.06,11.55V109.5q0,5.75,1.68,7.91t5.88,2.17v2.94q-12.89-.55-17.36-.56-4.2,0-19.32.56v-2.94q5,0,7-2.17t2-7.91V65.4q0-6.44-2-9.38t-7-2.94V50.14q4.48.42,8.68.42,12.47,0,20.44-2V61.2q6.3-13,23-13Q146.48,48.18,151.24,53.64Z"/><path class="cls-1" d="M211.72,51.4a28,28,0,0,0-7.35,1.12,5,5,0,0,0-3.15,3.22,25.33,25.33,0,0,0-.84,7.7v45.92a21.64,21.64,0,0,0,.7,6.51,4.2,4.2,0,0,0,2.45,2.73,16.5,16.5,0,0,0,5.67.7h1.74c6.35,0,10.34-2.64,15-8.34s4.4-13.45,5.8-22.88h3.22q-.42,4.76-.42,12.32a202.2,202.2,0,0,0,1,22.12c-6.35-.28-12.31-.42-27.34-.42-20.35,0-30.44.14-40.52.42v-2.8a24.08,24.08,0,0,0,6.79-1.12,4.82,4.82,0,0,0,2.94-3.22,27.54,27.54,0,0,0,.77-7.7V63.44a27.64,27.64,0,0,0-.77-7.7,4.84,4.84,0,0,0-2.94-3.22,24.46,24.46,0,0,0-6.79-1.12V48.6q7.14.42,22.12.42,14.28,0,22-.42Z"/><path class="cls-1" d="M345.78,117.41c-1.36-1.44-2-4.08-2-7.91V71.84a52.23,52.23,0,0,0-1-11.34,15.46,15.46,0,0,0-3.36-6.86q-4.77-5.46-15.4-5.46-16.67,0-23,13V48.6l-.35.08V48.6a86.57,86.57,0,0,1-18.93,1.95h-1.16l-2.12,0c-2.14-.05-4.32-.18-6.56-.39v0l-.35,0v2.94q4.89,0,6.93,2.94t2,9.38v36.68a17.19,17.19,0,0,1-4,11.55,12.18,12.18,0,0,1-9.59,4.69q-4.9,0-6.65-2.94t-1.75-8.82v-58a90,90,0,0,1-20.44,2q-4.35,0-8.68-.42v2.94q4.89,0,6.93,2.94t2,9.38v35.42a48.77,48.77,0,0,0,1,11.27,16.7,16.7,0,0,0,3.29,6.93q4.75,5.46,15.26,5.46,16.1,0,22.54-13v12.6a85.84,85.84,0,0,1,17.95-1.94q4.15.13,10.12.4v-.09l1.05.09v-2.94q-4.91,0-6.93-2.94a10.27,10.27,0,0,1-1.49-3.66,27.84,27.84,0,0,1-.19-3.48V70.58A17,17,0,0,1,305.11,59a12.53,12.53,0,0,1,9.8-4.69c3.26,0,5.53,1,6.79,2.94s1.89,4.86,1.89,8.68V109.5q0,5.75-1.68,7.91T316,119.58v2.94q14-.55,18.2-.56,3.75,0,14.23.4V119A6.14,6.14,0,0,1,345.78,117.41Z"/><path class="cls-1" d="M352.71,119.58a13.83,13.83,0,0,1-4.25-.57v3.35l4.25.16Z"/><path class="cls-1" d="M488,107.26c0,4.3.68,7.42,2,9.38s3.66,2.94,6.93,2.94v2.94q-4.33-.42-8.68-.42a90,90,0,0,0-20.44,2v-12.6q-6.44,13-22.54,13-10.5,0-15.26-5.46a16.83,16.83,0,0,1-3.29-6.93,48.77,48.77,0,0,1-1.05-11.27V35.46c0-4.3-.68-7.42-2-9.38s-19.53-2.94-22.79-2.94V20.2c2.89.28,21.65.42,24.54.42a90.62,90.62,0,0,0,20.44-2v87.9q0,5.88,1.75,8.82t6.65,2.94a12.17,12.17,0,0,0,9.59-4.69,17.19,17.19,0,0,0,4-11.55V65.4c0-4.29-.67-7.42-2-9.38s-3.66-2.94-6.93-2.94V50.14q4.49.42,8.68.42a90,90,0,0,0,20.44-2Z"/><path class="cls-1" d="M557.28,52.1q5.67,3.93,8.89,11.76T569.39,83q0,20-8.75,30.73t-23.73,10.71a27.1,27.1,0,0,1-7.91-1.12,17.55,17.55,0,0,1-6.37-3.36v14c0,4.11,1,6.95,3.08,8.54s5.22,2.38,9.52,2.38v2.94l-3.78-.14q-15.54-.42-19.74-.42t-17.64.56v-2.94q4.62,0,6.51-2t1.89-7.49v-70q0-6.44-2-9.38t-6.93-2.94V50.14c3,.28,5.88.42,8.68.42a90,90,0,0,0,20.44-2V61.48a21.88,21.88,0,0,1,8.54-9.87,24.74,24.74,0,0,1,13.16-3.43A22.25,22.25,0,0,1,557.28,52.1Zm-12.95,59.71q3.92-8.88,3.92-26T545.1,61.48q-3.15-7.27-9-7.28a12.57,12.57,0,0,0-8.47,3.22,16,16,0,0,0-5,9v50.54a11.24,11.24,0,0,0,8.82,3.78Q540.41,120.7,544.33,111.81Z"/><path class="cls-1" d="M426.11,119.58v2.94q-4.35-.42-8.68-.42a106.87,106.87,0,0,0-14.54.89c-2.1.29-4.08.64-5.9,1.07v-12.6q-6.45,13-22.54,13-10.5,0-15.26-5.46a16.7,16.7,0,0,1-3.29-6.93,48.77,48.77,0,0,1-1-11.27V19.71q11.61,0,20.16-4.48V45.8l42.26-.27v5.3L375,51.1v55.46q0,5.88,1.75,8.82t6.65,2.94a12.18,12.18,0,0,0,9.59-4.69,17.19,17.19,0,0,0,4-11.55L396.71,98q0-6.43-2-9.38c-1.36-2-3.67-2.93-6.93-2.93V82.76c3,.29,5.88.42,8.68.42a90,90,0,0,0,20.44-2l.28,26c0,4.3.67,7.42,2,9.38S422.84,119.58,426.11,119.58Z"/><polyline class="cls-1" points="486.76 129.58 569.39 129.31 569.39 134.6 486.76 134.87"/><path id="rect4654" class="cls-2" d="M419.3,0h20.82l-27,16.74h-8.8Z"/><path id="path4550" class="cls-2" d="M520.52,135.36v-.77H551.9a27.34,27.34,0,0,1,10.86,2.84c3.78,2,6.34,3.76,7.68,8.22h2.9A14.1,14.1,0,0,1,573,142a100.74,100.74,0,0,1,.88-12.58q-8.18.19-27.58.19H520.52m-20.77,0h-3.07a27.62,27.62,0,0,1-10.84-2.84c-3.78-2-6.34-3.76-7.69-8.23h-2.89a14.2,14.2,0,0,1,.37,3.68,98.72,98.72,0,0,1-.88,12.57c5-.11,13.61-.17,25-.18"/></g></g></svg>